<?xml version="1.0" encoding="UTF-8" standalone="no"?>
<svg
   xmlns:dc="http://purl.org/dc/elements/1.1/"
   xmlns:cc="http://creativecommons.org/ns#"
   xmlns:rdf="http://www.w3.org/1999/02/22-rdf-syntax-ns#"
   xmlns:svg="http://www.w3.org/2000/svg"
   xmlns="http://www.w3.org/2000/svg"
   xmlns:sodipodi="http://sodipodi.sourceforge.net/DTD/sodipodi-0.dtd"
   xmlns:inkscape="http://www.inkscape.org/namespaces/inkscape"
   sodipodi:docname="logo-dark.svg"
   inkscape:version="1.0 (4035a4fb49, 2020-05-01)"
   xml:space="preserve"
   enable-background="new 0 0 300 300"
   viewBox="0 0 257.26599 241.939"
   height="241.939"
   width="257.26599"
   y="0px"
   x="0px"
   id="Layer_1"
   version="1.1"><metadata
     id="metadata4143"><rdf:RDF><cc:Work
         rdf:about=""><dc:format>image/svg+xml</dc:format><dc:type
           rdf:resource="http://purl.org/dc/dcmitype/StillImage" /><dc:title></dc:title></cc:Work></rdf:RDF></metadata><defs
     id="defs4141" /><sodipodi:namedview
     inkscape:document-rotation="0"
     inkscape:current-layer="Layer_1"
     inkscape:window-maximized="0"
     inkscape:window-y="18"
     inkscape:window-x="6400"
     inkscape:cy="414.85673"
     inkscape:cx="84.798306"
     inkscape:zoom="1.1925"
     fit-margin-bottom="0"
     fit-margin-right="0"
     fit-margin-left="0"
     fit-margin-top="0"
     showgrid="false"
     id="namedview4139"
     inkscape:window-height="2121"
     inkscape:window-width="1276"
     inkscape:pageshadow="2"
     inkscape:pageopacity="0"
     guidetolerance="10"
     gridtolerance="10"
     objecttolerance="10"
     borderopacity="1"
     bordercolor="#666666"
     pagecolor="#ffffff" /><path
     style="fill:#000000;image-rendering:auto;opacity:1;fill-opacity:1"
     inkscape:connector-curvature="0"
     id="path4137"
     d="m 256.326,212.03 c -0.622,-0.811 -1.442,-1.216 -2.47,-1.216 -0.368,0 -0.934,0.584 -1.707,1.749 -0.764,1.164 -1.598,2.428 -2.488,3.785 -0.896,1.357 -1.849,2.593 -2.848,3.705 -1.009,1.108 -1.923,1.659 -2.739,1.659 -3.275,0 -6.274,-0.377 -8.989,-1.131 -2.715,-0.75 -5.346,-1.735 -7.872,-2.961 3.794,-4.492 7.202,-9.281 10.22,-14.368 3.012,-5.082 5.544,-10.079 7.59,-14.981 2.046,-4.897 3.61,-9.541 4.69,-13.925 1.079,-4.385 1.616,-8.198 1.616,-11.441 0,-5.869 -0.829,-11.323 -2.493,-16.372 -1.664,-5.054 -3.813,-9.061 -6.435,-12.03 -2.626,-2.97 -5.549,-5.364 -8.769,-7.185 -3.215,-1.819 -6.396,-3.25 -9.541,-4.289 -3.14,-1.038 -6.062,-1.726 -8.769,-2.061 -2.696,-0.332 -4.86,-0.502 -6.486,-0.502 -6.138,0 -11.917,1.009 -17.353,3.024 -5.436,2.015 -10.163,4.667 -14.194,7.947 -6.043,4.932 -10.149,10.022 -16.452,14.774 -10.158,7.655 -20.034,16.933 -30.403,24.419 -5.68,4.092 -11.561,7.778 -17.645,11.04 -6.084,3.262 -12.478,5.902 -19.184,7.915 -6.706,2.013 -13.944,3.012 -21.711,3.012 -6.229,0 -11.837,-0.942 -16.82,-2.842 -4.985,-1.9 -9.197,-4.785 -12.643,-8.655 -3.443,-3.87 -6.1,-8.707 -7.969,-14.515 -1.869,-5.808 -2.802,-12.619 -2.802,-20.44 0,-5.317 0.53,-11.144 1.593,-17.461 1.061,-6.321 2.583,-12.846 4.563,-19.57 1.978,-6.727 4.377,-13.47 7.201,-20.235 2.819,-6.765 5.989,-13.27 9.508,-19.514 3.517,-6.246 7.347,-12.104 11.488,-17.574 4.139,-5.471 8.519,-10.201 13.136,-14.191 4.618,-3.993 9.436,-7.151 14.456,-9.48 5.02,-2.329 10.17,-3.496 15.445,-3.496 4.472,0 8.264,0.679 11.38,2.034 3.114,1.357 5.662,3.154 7.639,5.388 1.98,2.237 3.409,4.836 4.288,7.804 0.879,2.967 1.32,6.103 1.32,9.4 0,6.229 -1.229,11.926 -3.685,17.093 -2.456,5.167 -5.605,9.619 -9.454,13.357 -3.847,3.738 -8.172,6.635 -12.971,8.686 -4.801,2.053 -9.548,3.078 -14.236,3.078 -1.758,0 -3.208,-0.127 -4.342,-0.387 -1.139,-0.254 -2.109,-0.53 -2.913,-0.822 -0.809,-0.292 -1.54,-0.568 -2.199,-0.825 -0.66,-0.257 -1.431,-0.384 -2.31,-0.384 -1.466,0 -2.621,0.366 -3.462,1.099 -0.844,0.733 -1.482,1.688 -1.923,2.859 -0.441,1.171 -0.733,2.473 -0.879,3.901 -0.148,1.431 -0.219,2.805 -0.219,4.123 0,0.879 0.016,1.723 0.054,2.529 0.036,0.808 0.055,1.503 0.055,2.088 0,3.373 1.65,5.957 4.947,7.75 3.297,1.799 8.28,2.694 14.951,2.694 5.056,0 10.114,-0.952 15.17,-2.859 5.058,-1.904 9.93,-4.488 14.621,-7.75 4.69,-3.26 9.07,-7.125 13.141,-11.597 4.063,-4.471 7.599,-9.251 10.606,-14.347 3.003,-5.094 5.364,-10.407 7.09,-15.941 1.721,-5.532 2.583,-11.01 2.583,-16.433 0,-8.061 -1.376,-15.062 -4.12,-20.999 C 151.429,20.228 147.894,15.318 143.571,11.434 139.249,7.55 134.375,4.672 128.951,2.803 123.527,0.936 118.177,0 112.902,0 104.766,0 96.924,1.33 89.377,3.986 81.827,6.642 74.646,10.315 67.829,15.001 61.015,19.687 54.599,25.183 48.591,31.493 42.579,37.803 37.064,44.65 32.046,52.028 27.025,59.408 22.538,67.12 18.58,75.162 14.622,83.207 11.268,91.27 8.52,99.35 5.772,107.43 3.665,115.364 2.199,123.149 0.733,130.934 0,138.222 0,145.01 c 0,9.763 1.521,19.068 4.563,27.926 3.041,8.858 7.382,16.627 13.027,23.32 5.643,6.685 12.438,11.998 20.393,15.938 7.951,3.941 16.874,5.911 26.767,5.911 8.943,0 17.096,-0.599 24.461,-1.805 7.366,-1.197 14.107,-2.819 20.228,-4.855 6.117,-2.041 11.708,-4.413 16.763,-7.118 5.058,-2.706 9.727,-5.544 14.017,-8.519 4.29,-2.975 8.278,-6.186 11.983,-9.641 3.696,-3.45 7.27,-6.736 10.72,-9.848 2.216,-2.003 4.412,-3.865 6.595,-5.661 0.062,0.065 4.945,-4.328 4.945,-4.328 0,0 10.711,-10.258 15.523,-15.914 0.67,-0.792 1.532,-1.387 2.216,-2.159 0.66,-0.745 1.239,-1.561 2.003,-2.216 1.641,-1.396 3.508,-2.494 5.592,-3.281 2.083,-0.792 4.289,-1.188 6.628,-1.188 1.899,0 3.837,0.339 5.808,1.022 1.97,0.684 3.78,1.957 5.426,3.823 1.645,1.867 2.975,4.474 4.002,7.812 1.019,3.342 1.532,7.632 1.532,12.874 0,3.149 -0.42,6.354 -1.259,9.616 -0.844,3.263 -1.994,6.506 -3.45,9.73 -1.467,3.225 -3.163,6.354 -5.101,9.399 -1.934,3.036 -3.998,5.879 -6.19,8.514 -3.775,-2.498 -7.905,-4.647 -12.384,-6.448 -4.479,-1.797 -9.645,-2.697 -15.49,-2.697 -3.828,0 -7.09,0.688 -9.777,2.07 -2.687,1.381 -4.893,3.163 -6.623,5.341 -1.729,2.188 -3.003,4.601 -3.813,7.24 -0.811,2.641 -1.216,5.224 -1.216,7.75 0,3.103 0.707,6.119 2.116,9.07 1.409,2.946 3.352,5.544 5.841,7.787 2.479,2.254 5.393,4.055 8.726,5.422 3.338,1.362 6.935,2.041 10.791,2.041 5.354,-0.368 10.418,-1.57 15.188,-3.606 4.77,-2.036 9.286,-4.686 13.548,-7.948 2.141,1.556 4.309,3.018 6.487,4.394 2.182,1.367 4.365,2.588 6.543,3.663 2.183,1.075 4.365,1.928 6.548,2.555 2.183,0.627 4.341,0.943 6.491,0.943 2.526,0 4.704,-0.438 6.533,-1.325 1.82,-0.881 3.323,-2.003 4.507,-3.365 1.179,-1.357 2.103,-2.848 2.763,-4.469 0.655,-1.617 1.169,-3.159 1.536,-4.635 1.17,-4.709 1.759,-8.641 1.759,-11.809 -0.001,-2.057 -0.317,-3.496 -0.94,-4.306 z m -72.445,8.806 c -0.915,0 -1.829,-0.141 -2.739,-0.429 -0.909,-0.287 -1.711,-0.674 -2.39,-1.174 -0.688,-0.5 -1.235,-1.037 -1.655,-1.607 -0.419,-0.57 -0.627,-1.179 -0.627,-1.819 0,-0.854 0.703,-1.57 2.107,-2.141 1.405,-0.57 3.818,-0.853 7.236,-0.853 1.259,0 2.683,0.32 4.271,0.961 1.594,0.642 3.276,1.499 5.054,2.564 -4.384,2.999 -8.137,4.498 -11.257,4.498 z" /></svg>
