<?xml version="1.0" standalone="no"?>
<!DOCTYPE svg PUBLIC "-//W3C//DTD SVG 20010904//EN"
 "http://www.w3.org/TR/2001/REC-SVG-20010904/DTD/svg10.dtd">
<svg version="1.0" xmlns="http://www.w3.org/2000/svg"
 width="1028.000000pt" height="1028.000000pt" viewBox="0 0 1028.000000 1028.000000"
 preserveAspectRatio="xMidYMid meet">
<metadata>
Created by potrace 1.11, written by Peter Selinger 2001-2013
</metadata>
<g transform="translate(0.000000,1028.000000) scale(0.100000,-0.100000)"
fill="#000000" stroke="none">
<path d="M4308 9965 c-1 -2 -36 -6 -77 -9 -41 -4 -84 -9 -95 -11 -12 -2 -42
-7 -68 -10 -26 -3 -53 -7 -60 -10 -7 -2 -29 -6 -48 -9 -20 -3 -65 -12 -100
-21 -36 -9 -72 -18 -80 -19 -8 -2 -22 -6 -30 -8 -21 -8 -233 -78 -245 -82 -5
-2 -23 -9 -40 -15 -16 -7 -46 -19 -65 -26 -144 -53 -485 -233 -620 -328 -14
-9 -77 -54 -140 -98 -120 -85 -255 -190 -320 -249 -21 -19 -59 -53 -86 -75
-103 -86 -412 -404 -510 -525 -16 -19 -34 -41 -41 -48 -11 -11 -76 -90 -96
-117 -4 -5 -17 -21 -28 -35 -46 -54 -215 -286 -222 -302 -3 -10 -11 -18 -17
-18 -5 0 -10 -7 -10 -15 0 -8 -4 -15 -10 -15 -5 0 -10 -4 -10 -8 0 -5 -33 -58
-73 -118 -40 -60 -101 -156 -136 -214 -35 -58 -66 -107 -70 -110 -3 -3 -7 -12
-9 -20 -2 -8 -9 -22 -17 -30 -7 -8 -16 -25 -19 -37 -4 -13 -12 -23 -17 -23 -5
0 -9 -6 -9 -14 0 -8 -7 -22 -16 -30 -8 -9 -13 -16 -10 -16 3 0 -8 -23 -25 -52
-58 -98 -280 -554 -280 -575 0 -5 -8 -16 -17 -27 -9 -10 -16 -21 -16 -25 2 -7
-3 -20 -56 -146 -23 -55 -55 -136 -71 -180 -17 -44 -35 -91 -41 -105 -7 -14
-12 -27 -13 -30 -4 -18 -18 -58 -25 -75 -11 -24 -81 -234 -85 -255 -2 -8 -8
-27 -14 -42 -6 -16 -8 -28 -5 -28 4 0 2 -6 -4 -13 -6 -7 -13 -26 -16 -42 -2
-17 -5 -30 -6 -30 -1 0 -3 -7 -6 -15 -2 -8 -19 -73 -39 -145 -37 -137 -58
-222 -69 -290 -1 -5 -5 -16 -9 -22 -5 -7 -6 -13 -4 -13 3 0 1 -17 -4 -37 -5
-21 -12 -54 -14 -73 -3 -19 -8 -46 -11 -60 -7 -26 -8 -32 -17 -90 -3 -19 -9
-51 -12 -71 -6 -40 -12 -83 -20 -149 -2 -25 -7 -62 -10 -83 -20 -158 -27 -613
-11 -772 3 -38 8 -86 10 -105 2 -20 9 -67 15 -105 7 -39 13 -80 14 -92 1 -13
4 -23 7 -23 3 0 5 -10 6 -22 0 -23 7 -59 19 -108 3 -14 8 -36 11 -50 3 -14 8
-34 11 -45 4 -11 8 -22 8 -25 14 -58 74 -249 84 -265 3 -5 6 -17 8 -25 1 -8 6
-23 11 -35 29 -61 42 -95 42 -109 0 -9 5 -16 11 -16 5 0 7 -5 4 -10 -3 -5 -1
-10 6 -10 7 0 10 -3 7 -6 -15 -14 229 -456 272 -494 3 -3 17 -21 30 -40 27
-38 25 -35 101 -130 70 -87 248 -262 340 -336 41 -32 76 -62 79 -65 10 -12
187 -127 270 -175 131 -77 268 -140 395 -182 89 -29 227 -68 275 -77 14 -2 39
-7 55 -10 17 -3 44 -7 60 -10 17 -3 40 -7 52 -9 129 -26 815 -26 946 0 12 2
54 6 92 9 39 3 85 7 103 10 78 10 121 17 182 27 36 5 76 11 90 13 14 1 32 5
40 9 8 3 33 8 55 10 22 3 40 5 40 6 0 2 15 5 60 13 17 3 39 8 50 11 83 19 110
24 114 21 2 -3 9 -1 15 5 7 5 25 11 41 14 79 14 442 129 545 173 8 3 17 7 20
8 3 1 18 7 33 13 16 7 30 12 32 12 16 0 358 167 450 219 39 22 80 45 92 50 11
5 24 15 28 21 3 5 11 8 16 5 5 -4 9 -1 9 4 0 6 7 11 15 11 8 0 15 3 15 8 0 4
13 13 28 20 16 7 79 46 141 87 62 41 116 75 121 75 4 0 10 4 12 8 2 4 26 23
53 42 28 19 52 37 55 40 3 3 46 37 95 75 50 38 95 74 101 80 7 5 34 29 60 52
27 22 63 53 79 69 68 62 220 202 265 244 59 56 124 115 220 200 41 36 81 72
90 80 9 8 52 44 95 79 44 36 87 72 96 80 9 9 42 39 75 66 77 66 536 525 644
644 200 220 273 286 370 335 50 25 102 48 115 50 14 3 28 7 33 10 14 8 64 18
117 21 28 2 52 4 55 5 20 7 112 -1 170 -15 14 -4 32 -8 40 -9 8 -1 22 -5 30
-8 36 -14 55 -21 60 -22 3 -1 12 -6 20 -11 16 -11 29 -19 75 -49 65 -42 180
-204 210 -298 4 -13 8 -25 10 -28 13 -30 32 -93 39 -130 3 -14 7 -34 9 -45 3
-11 8 -40 12 -65 3 -25 9 -58 12 -75 12 -73 10 -365 -4 -460 -8 -55 -16 -107
-17 -115 -1 -9 -5 -21 -10 -28 -4 -6 -5 -12 -2 -12 3 0 -2 -21 -10 -48 -9 -26
-17 -56 -19 -67 -4 -24 -64 -190 -93 -255 -10 -25 -29 -67 -42 -95 -13 -27
-22 -52 -21 -54 2 -2 -1 -7 -6 -10 -4 -3 -21 -31 -37 -61 -50 -94 -65 -119
-128 -218 -52 -82 -118 -178 -150 -217 -5 -5 -25 -31 -45 -57 -32 -43 -73 -64
-73 -38 0 6 -6 10 -14 10 -8 0 -16 4 -18 8 -7 20 -259 149 -433 222 -85 36
-266 80 -395 96 -76 9 -325 10 -380 1 -39 -6 -104 -21 -135 -31 -96 -30 -232
-115 -314 -196 -35 -36 -134 -170 -125 -170 4 0 0 -8 -9 -17 -13 -15 -54 -106
-62 -138 -1 -5 -7 -23 -13 -38 -7 -16 -12 -34 -12 -40 0 -7 -6 -36 -13 -64 -8
-30 -10 -50 -4 -46 6 4 7 1 2 -7 -19 -31 -20 -175 -1 -292 7 -44 49 -173 58
-176 4 -2 8 -10 8 -18 0 -8 18 -44 40 -80 22 -36 40 -68 40 -70 0 -9 59 -74
140 -154 55 -54 123 -107 185 -145 53 -33 100 -60 104 -59 3 0 26 -9 51 -22
48 -24 166 -62 215 -70 17 -2 55 -8 85 -13 54 -9 254 -7 296 3 12 2 39 7 60
10 22 4 46 8 54 11 8 2 29 7 45 10 38 8 38 8 110 29 33 10 65 19 70 21 6 1 19
6 30 10 11 5 42 17 68 27 78 30 339 163 372 190 5 4 35 25 65 45 30 20 58 41
62 47 4 6 8 7 8 3 0 -5 14 3 31 17 30 26 31 26 61 9 16 -10 38 -26 48 -35 11
-10 21 -18 23 -18 6 0 198 -126 215 -140 6 -6 12 -8 12 -5 0 4 12 -2 28 -13
29 -21 204 -111 262 -135 53 -23 181 -65 215 -72 277 -54 469 -14 620 130 99
94 185 275 220 465 3 14 8 36 11 50 26 112 37 198 39 321 4 171 -18 224 -106
249 -20 6 -33 4 -46 -8 -22 -21 -73 -88 -73 -97 0 -4 -14 -24 -30 -45 -16 -21
-30 -41 -30 -44 0 -16 -80 -118 -138 -175 l-64 -63 -111 5 c-117 6 -148 10
-232 29 -27 7 -52 13 -55 13 -64 15 -260 88 -292 110 -16 10 -15 14 12 44 17
18 30 34 30 37 0 3 20 29 45 58 6 6 30 38 55 71 25 33 50 65 55 71 9 11 95
141 120 183 6 9 25 40 43 67 17 28 32 56 32 62 0 5 4 12 8 14 15 6 197 348
185 348 -4 0 -3 4 4 8 18 11 156 330 156 359 0 7 4 13 9 13 4 0 7 3 6 8 -1 4
8 34 21 67 13 33 24 65 25 70 1 6 14 48 29 95 39 125 79 299 72 310 -3 6 -2
10 3 10 5 0 9 6 9 13 1 6 4 37 8 67 13 99 15 134 18 218 1 45 0 82 -3 82 -3 0
-5 30 -6 68 -1 99 -16 225 -30 262 -4 8 -8 29 -10 45 -8 64 -45 191 -92 310
-23 59 -74 168 -82 175 -3 3 -11 16 -18 30 -13 27 -34 62 -42 70 -3 3 -18 23
-34 45 -31 43 -224 235 -236 235 -4 0 -20 11 -36 25 -16 14 -32 25 -36 25 -4
0 -13 6 -20 13 -14 12 -27 19 -153 86 -192 102 -432 179 -640 205 -185 24
-443 24 -555 1 -14 -3 -41 -7 -60 -10 -69 -9 -171 -35 -186 -46 -6 -5 -13 -6
-17 -3 -6 6 -221 -70 -252 -90 -11 -7 -31 -16 -45 -19 -24 -6 -258 -136 -283
-157 -7 -6 -35 -27 -63 -48 -86 -63 -201 -165 -383 -341 -58 -56 -106 -101
-107 -101 -1 0 -18 -15 -37 -32 -90 -85 -116 -106 -121 -101 -3 4 -6 1 -6 -5
0 -6 -20 -25 -44 -41 -25 -17 -50 -37 -58 -44 -7 -7 -29 -24 -48 -37 -19 -13
-37 -27 -40 -31 -3 -4 -26 -22 -51 -41 -44 -34 -79 -62 -103 -83 -6 -6 -36
-30 -66 -55 -30 -25 -57 -48 -58 -53 -2 -4 -8 -5 -13 -1 -5 3 -9 1 -9 -4 0 -5
-33 -36 -72 -68 -40 -32 -80 -65 -88 -74 -9 -8 -35 -30 -57 -48 -23 -19 -51
-41 -62 -50 -11 -10 -39 -33 -62 -52 -41 -34 -74 -62 -94 -78 -9 -7 -148 -117
-170 -134 -82 -65 -242 -180 -385 -278 -51 -35 -154 -100 -157 -100 -3 0 -28
-16 -57 -35 -29 -19 -58 -35 -65 -35 -6 0 -11 -4 -11 -10 0 -5 -4 -10 -10 -10
-5 0 -32 -14 -60 -30 -119 -70 -343 -186 -371 -192 -8 -2 -16 -5 -19 -8 -10
-10 -297 -128 -329 -135 -9 -2 -40 -13 -69 -24 -29 -11 -56 -20 -60 -21 -4 0
-38 -10 -77 -21 -38 -10 -86 -24 -105 -29 -37 -10 -179 -39 -220 -45 -14 -2
-38 -6 -55 -9 -39 -7 -126 -16 -195 -21 -30 -2 -55 -5 -55 -6 0 -5 -391 -5
-399 -1 -5 3 -32 7 -60 8 -149 9 -372 67 -512 135 -33 16 -64 29 -68 29 -5 0
-28 14 -53 30 -24 17 -46 30 -49 30 -15 0 -138 104 -209 175 -88 89 -96 98
-145 170 -18 28 -36 52 -40 55 -3 3 -17 28 -30 55 -14 28 -27 52 -30 55 -3 3
-16 28 -29 55 -13 28 -28 58 -33 69 -5 10 -11 26 -14 35 -2 9 -19 59 -38 112
-18 53 -36 107 -39 120 -42 189 -56 266 -63 363 -2 34 -7 84 -10 111 -8 66 -8
414 0 490 4 33 8 85 10 115 2 30 5 55 5 55 1 0 4 18 6 40 6 70 16 149 21 168
3 10 7 32 10 50 2 18 6 43 9 57 2 14 7 39 10 55 3 17 7 41 10 55 3 14 8 36 10
50 4 26 10 55 21 105 4 17 8 37 9 45 1 8 5 22 8 30 3 8 13 47 22 85 8 39 18
79 21 90 3 11 7 27 9 35 1 8 5 22 8 30 4 8 8 24 10 35 2 11 7 27 10 35 3 8 20
65 37 125 30 104 74 242 87 275 3 8 7 21 9 29 1 7 12 39 24 70 12 31 30 81 41
111 12 30 25 66 31 80 6 14 12 30 14 35 1 6 8 24 15 40 7 17 12 33 11 38 -1 4
3 7 10 7 6 0 9 2 6 6 -5 5 55 154 124 308 92 203 283 565 391 740 85 138 151
242 156 246 3 3 24 32 45 65 53 81 218 303 256 344 9 9 33 39 55 66 22 28 45
55 51 60 7 6 32 33 57 62 25 28 47 49 50 47 3 -3 8 3 12 13 3 10 26 34 50 53
24 19 44 41 44 48 1 6 5 12 10 12 5 0 24 14 42 32 65 60 291 238 304 238 3 0
11 5 18 11 20 17 147 98 147 93 0 -2 18 7 40 21 22 14 42 25 44 25 3 0 38 15
78 34 65 30 134 59 148 62 3 0 12 3 20 7 51 20 176 49 277 63 62 9 260 9 345
0 212 -22 420 -119 557 -259 56 -58 120 -144 121 -164 0 -6 4 -13 8 -15 16 -6
71 -147 88 -223 18 -84 22 -107 29 -193 6 -73 6 -192 0 -262 -8 -102 -14 -150
-18 -158 -3 -4 -8 -23 -11 -42 -9 -55 -13 -73 -26 -105 -6 -16 -11 -32 -11
-35 2 -15 -30 -98 -76 -200 -59 -128 -181 -319 -267 -419 -58 -67 -198 -198
-265 -249 -42 -31 -82 -63 -89 -69 -7 -7 -24 -16 -38 -19 -13 -3 -24 -9 -24
-13 0 -4 -24 -20 -52 -35 -29 -15 -60 -31 -68 -36 -34 -19 -131 -60 -143 -60
-7 0 -17 -4 -23 -9 -8 -8 -73 -32 -99 -37 -5 -1 -28 -6 -50 -12 -22 -6 -52
-13 -67 -16 -15 -2 -31 -7 -36 -9 -24 -15 -322 -29 -322 -15 0 4 -11 3 -25 -2
-16 -6 -26 -6 -31 1 -3 6 -15 9 -25 6 -10 -3 -22 -1 -25 4 -3 5 -14 9 -24 9
-10 0 -31 5 -47 11 -15 6 -29 10 -30 10 -1 0 -31 11 -65 25 -156 61 -284 6
-337 -147 -31 -88 -33 -102 -36 -324 -2 -225 4 -273 49 -344 65 -102 225 -188
401 -215 17 -2 53 -8 80 -12 57 -9 396 -10 470 -1 232 27 530 136 800 294 106
62 117 69 143 90 15 13 30 23 34 23 4 0 16 6 25 14 10 8 62 49 117 91 182 141
374 332 524 520 117 147 162 209 162 224 0 6 4 11 9 11 7 0 80 109 90 135 2 5
9 17 16 25 28 34 174 319 190 370 3 11 28 66 37 84 5 10 11 26 13 35 2 9 20
63 40 121 36 102 75 250 80 300 2 14 4 26 5 28 1 1 4 11 5 22 1 11 3 21 4 23
2 2 6 38 15 119 2 20 6 41 10 46 3 6 2 13 -4 17 -6 4 -7 13 -2 23 18 38 -1
408 -28 552 -6 30 -13 69 -16 85 -3 17 -10 32 -15 33 -5 2 -7 8 -3 13 7 12
-50 184 -93 277 -18 39 -33 75 -32 78 0 4 -3 10 -8 13 -11 8 -42 61 -54 94 -6
15 -15 27 -20 27 -5 0 -9 6 -9 13 0 13 -88 138 -141 203 -56 67 -200 203 -269
255 -87 65 -186 129 -199 129 -5 0 -11 3 -13 8 -8 17 -276 132 -310 132 -10 0
-18 4 -18 8 0 5 -6 9 -12 9 -18 1 -103 20 -103 23 0 2 -22 7 -60 15 -16 3 -37
8 -45 10 -8 2 -37 7 -65 11 -27 3 -59 9 -70 11 -22 6 -421 13 -427 8z m3182
-8508 c55 -9 227 -78 240 -96 3 -3 17 -12 33 -18 36 -17 34 -26 -10 -49 -21
-10 -43 -24 -49 -30 -7 -6 -38 -23 -71 -38 -32 -15 -67 -32 -78 -37 -47 -22
-164 -45 -220 -43 -161 7 -314 131 -275 223 11 28 82 72 124 76 12 1 21 3 21
4 0 2 24 4 53 6 30 2 55 5 57 7 5 5 136 1 175 -5z"/>
</g>
</svg>
